<svg width="447" height="59" viewBox="0 0 447 59" fill="none" xmlns="http://www.w3.org/2000/svg">
<path fill-rule="evenodd" clip-rule="evenodd" d="M0.740723 3.4545V58H24.0451C28.1289 58 31.5646 57.343 34.3523 56.0291C37.1399 54.7152 39.244 52.9308 40.6644 50.6758C42.1026 48.4031 42.8217 45.8196 42.8217 42.9254C42.8217 40.2443 42.2536 37.9361 41.1172 36.0007C39.9808 34.0476 38.4982 32.5295 36.6694 31.4464C34.8583 30.3633 32.9141 29.7773 30.8366 29.6886V29.1559C32.7365 28.7298 34.4233 28.0107 35.897 26.9986C37.3885 25.9687 38.5604 24.6548 39.4126 23.0568C40.2649 21.4411 40.6911 19.5678 40.6911 17.4371C40.6911 14.7028 40.0163 12.288 38.6669 10.1928C37.3175 8.07986 35.3022 6.42858 32.6211 5.23895C29.94 4.04932 26.593 3.4545 22.5803 3.4545H0.740723ZM21.6747 48.5717H12.2731V34.0831H21.9411C23.7876 34.0831 25.3768 34.4116 26.7085 35.0685C28.0579 35.7255 29.0966 36.631 29.8246 37.7852C30.5526 38.9393 30.9165 40.271 30.9165 41.7802C30.9165 43.8398 30.1797 45.4911 28.706 46.734C27.2322 47.9592 24.8885 48.5717 21.6747 48.5717ZM20.8224 26.2795H12.2731V12.7763H21.0355C23.5923 12.7763 25.5632 13.38 26.9482 14.5874C28.3509 15.7947 29.0522 17.3839 29.0522 19.3548C29.0522 20.793 28.6882 22.027 27.9602 23.0568C27.25 24.0866 26.2734 24.8857 25.0305 25.4538C23.8054 26.0043 22.4027 26.2795 20.8224 26.2795ZM54.8002 57.4141C56.8421 58.3196 59.1681 58.7724 61.7781 58.7724C63.8023 58.7724 65.5867 58.506 67.1315 57.9734C68.6762 57.4229 69.999 56.6683 71.0999 55.7095C72.2007 54.733 73.0796 53.6055 73.7366 52.3271H74.0562V58H84.8161V30.4077C84.8161 27.9751 84.3456 25.8888 83.4046 24.1488C82.4635 22.391 81.1762 20.9528 79.5427 19.8342C77.9269 18.7156 76.0715 17.8899 73.9763 17.3572C71.8989 16.8246 69.7238 16.5582 67.4511 16.5582C64.184 16.5582 61.3076 17.0554 58.8218 18.0497C56.3538 19.0263 54.3385 20.429 52.776 22.2578C51.2135 24.0689 50.1659 26.2173 49.6333 28.7031L60.1269 29.5554C60.5175 28.206 61.3165 27.0874 62.5239 26.1996C63.7313 25.294 65.3559 24.8413 67.3978 24.8413C69.3332 24.8413 70.8247 25.3029 71.8722 26.2262C72.9376 27.1495 73.4703 28.4545 73.4703 30.1413V30.3011C73.4703 31.1712 73.1418 31.8281 72.4848 32.272C71.8279 32.7159 70.7714 33.0533 69.3154 33.2841C67.8595 33.4972 65.9419 33.728 63.5626 33.9766C61.5384 34.1719 59.6031 34.5092 57.7565 34.9886C55.9276 35.468 54.2941 36.1783 52.8559 37.1193C51.4177 38.0604 50.2813 39.3033 49.4468 40.848C48.6123 42.3928 48.195 44.3015 48.195 46.5742C48.195 49.2731 48.781 51.5281 49.9529 53.3391C51.1425 55.1325 52.7583 56.4908 54.8002 57.4141ZM69.4486 49.9567C68.1702 50.6136 66.6964 50.9421 65.0274 50.9421C63.2873 50.9421 61.8492 50.5426 60.7128 49.7436C59.5942 48.9268 59.0349 47.7461 59.0349 46.2013C59.0349 45.136 59.3101 44.2482 59.8605 43.538C60.411 42.81 61.1833 42.233 62.1776 41.8068C63.172 41.3807 64.335 41.07 65.6666 40.8746C66.2881 40.7859 66.9806 40.6882 67.7441 40.5817C68.5075 40.4574 69.271 40.3242 70.0345 40.1822C70.798 40.0224 71.4816 39.8537 72.0853 39.6761C72.7067 39.4808 73.195 39.2678 73.5502 39.0369V43.3782C73.5502 44.8164 73.1861 46.1037 72.4582 47.2401C71.7302 48.3764 70.727 49.282 69.4486 49.9567ZM104.964 58V34.3494C104.982 32.5916 105.311 31.0913 105.95 29.8484C106.607 28.5877 107.512 27.6289 108.666 26.9719C109.838 26.315 111.188 25.9865 112.715 25.9865C114.987 25.9865 116.772 26.6967 118.068 28.1172C119.364 29.5199 120.003 31.473 119.986 33.9766V58H131.332V31.9524C131.332 28.7741 130.746 26.0398 129.574 23.7493C128.402 21.441 126.76 19.6655 124.647 18.4226C122.534 17.1797 120.057 16.5582 117.216 16.5582C114.18 16.5582 111.596 17.2596 109.465 18.6623C107.335 20.0472 105.817 21.9293 104.911 24.3086H104.432V17.0909H93.6185V58H104.964ZM151.62 45.0108V58H140.274V3.4545H151.62V32.6183H152.232L165.336 17.0909H178.36L163.187 34.8113L179.132 58H165.842L154.695 41.5003L151.62 45.0108ZM190.019 56.2422C193.055 57.9467 196.677 58.799 200.885 58.799C204.259 58.799 207.233 58.2841 209.807 57.2543C212.4 56.2067 214.513 54.7507 216.146 52.8864C217.797 51.0043 218.889 48.8026 219.422 46.2812L208.928 45.5888C208.538 46.6186 207.97 47.4886 207.224 48.1989C206.478 48.9091 205.581 49.4418 204.534 49.7969C203.486 50.152 202.332 50.3295 201.071 50.3295C199.172 50.3295 197.529 49.93 196.144 49.131C194.759 48.332 193.685 47.1957 192.922 45.7219C192.176 44.2482 191.803 42.4993 191.803 40.4751V40.4485H219.662V37.3324C219.662 33.8523 219.173 30.8161 218.197 28.2237C217.22 25.6136 215.853 23.4474 214.095 21.7251C212.355 20.0028 210.313 18.7156 207.97 17.8633C205.644 16.9933 203.131 16.5582 200.432 16.5582C196.419 16.5582 192.922 17.446 189.939 19.2216C186.973 20.9972 184.674 23.4741 183.041 26.6523C181.407 29.8306 180.59 33.5238 180.59 37.7319C180.59 42.0465 181.407 45.7841 183.041 48.9446C184.674 52.0874 187 54.5199 190.019 56.2422ZM191.814 33.4173C191.882 31.9483 192.261 30.6077 192.948 29.3956C193.694 28.0639 194.724 27.0075 196.038 26.2262C197.369 25.4272 198.896 25.0277 200.619 25.0277C202.27 25.0277 203.717 25.3917 204.96 26.1197C206.221 26.8299 207.206 27.8153 207.916 29.076C208.627 30.3366 208.982 31.7837 208.982 33.4173H191.814ZM227.066 17.0909V58H238.412V34.8555C238.412 33.1864 238.785 31.7127 239.53 30.4343C240.294 29.1559 241.324 28.1616 242.62 27.4513C243.934 26.7234 245.425 26.3594 247.094 26.3594C247.875 26.3594 248.737 26.4215 249.678 26.5458C250.619 26.6701 251.356 26.8121 251.888 26.9719V16.9045C251.391 16.7802 250.814 16.6825 250.157 16.6115C249.5 16.5405 248.888 16.505 248.319 16.505C246.029 16.505 244.005 17.1619 242.247 18.4759C240.489 19.772 239.237 21.6896 238.492 24.2287H238.065V17.0909H227.066ZM257.967 3.4545V58H292.884V48.4918H269.5V3.4545H257.967ZM300.308 17.0909V58H311.654V17.0909H300.308ZM332.088 58V34.3494C332.106 32.5916 332.435 31.0913 333.074 29.8484C333.731 28.5877 334.636 27.6289 335.79 26.9719C336.962 26.315 338.312 25.9865 339.839 25.9865C342.112 25.9865 343.896 26.6967 345.192 28.1172C346.488 29.5199 347.127 31.473 347.11 33.9766V58H358.456V31.9524C358.456 28.7741 357.87 26.0398 356.698 23.7493C355.526 21.441 353.884 19.6655 351.771 18.4226C349.658 17.1797 347.181 16.5582 344.34 16.5582C341.304 16.5582 338.72 17.2596 336.589 18.6623C334.459 20.0472 332.941 21.9293 332.035 24.3086H331.556V17.0909H320.743V58H332.088ZM378.744 45.0108V58H367.398V3.4545H378.744V32.6183H379.356L392.46 17.0909H405.484L390.311 34.8113L406.256 58H392.966L381.819 41.5003L378.744 45.0108ZM434.701 29.3956L445.088 28.7564C444.591 24.9922 442.851 22.0181 439.868 19.8342C436.902 17.6502 432.836 16.5582 427.669 16.5582C424.172 16.5582 421.118 17.0732 418.508 18.103C415.915 19.1328 413.9 20.5977 412.462 22.4975C411.041 24.3974 410.331 26.6612 410.331 29.2891C410.331 32.343 411.299 34.8555 413.234 36.8263C415.187 38.7972 418.161 40.1822 422.156 40.9812L429.241 42.3928C431.016 42.7479 432.33 43.2628 433.183 43.9375C434.035 44.5945 434.47 45.4379 434.488 46.4677C434.47 47.6928 433.848 48.696 432.623 49.4773C431.416 50.2408 429.818 50.6225 427.829 50.6225C425.805 50.6225 424.145 50.1964 422.849 49.3441C421.553 48.4741 420.736 47.2134 420.399 45.5621L409.239 46.1481C409.79 50.0543 411.663 53.1438 414.859 55.4165C418.073 57.6715 422.387 58.799 427.803 58.799C431.354 58.799 434.488 58.2397 437.204 57.1211C439.939 55.9847 442.087 54.4045 443.65 52.3803C445.23 50.3562 446.02 48.0036 446.02 45.3224C446.02 42.375 445.043 39.9957 443.09 38.1847C441.137 36.3736 438.172 35.0597 434.195 34.2429L426.791 32.7514C424.891 32.343 423.55 31.8015 422.769 31.1268C421.988 30.4521 421.597 29.6264 421.597 28.6499C421.597 27.4247 422.201 26.4482 423.408 25.7202C424.616 24.9744 426.098 24.6016 427.856 24.6016C429.17 24.6016 430.297 24.8235 431.238 25.2674C432.197 25.6935 432.97 26.2706 433.555 26.9986C434.141 27.7088 434.523 28.5078 434.701 29.3956Z" fill="#181F4F"/>
<path d="M306.008 11.8175C304.321 11.8175 302.874 11.2582 301.666 10.1396C300.477 9.00315 299.882 7.64484 299.882 6.06459C299.882 4.50209 300.477 3.16154 301.666 2.04293C302.874 0.906562 304.321 0.338379 306.008 0.338379C307.694 0.338379 309.133 0.906562 310.322 2.04293C311.53 3.16154 312.133 4.50209 312.133 6.06459C312.133 7.64484 311.53 9.00315 310.322 10.1396C309.133 11.2582 307.694 11.8175 306.008 11.8175Z" fill="#EE220D"/>
</svg>
