<svg width="28" height="28" viewBox="0 0 28 28" fill="none" xmlns="http://www.w3.org/2000/svg">
<path fill-rule="evenodd" clip-rule="evenodd" d="M22.5772 5.51472C27.2635 10.201 27.2635 17.799 22.5772 22.4853C17.8909 27.1716 10.2929 27.1716 5.6066 22.4853C0.92031 17.799 0.92031 10.201 5.6066 5.51472C10.2929 0.828428 17.8909 0.828427 22.5772 5.51472ZM23.6378 4.45406C28.9099 9.72614 28.9099 18.2739 23.6378 23.5459C18.3657 28.818 9.81802 28.818 4.54594 23.5459C-0.726136 18.2739 -0.726136 9.72614 4.54594 4.45406C9.81802 -0.81802 18.3657 -0.818019 23.6378 4.45406ZM9.4585 8.63135L13.8539 13.0268L18.4867 8.39393L19.5474 9.45459L14.9146 14.0874L19.459 18.6319L18.3983 19.6925L13.8539 15.1481L9.5469 19.4551L8.48624 18.3944L12.7933 14.0874L8.39784 9.69201L9.4585 8.63135Z" fill="#090909"/>
</svg>
