<svg width="169" height="24" viewBox="0 0 169 24" fill="none" xmlns="http://www.w3.org/2000/svg">
<path d="M0.642046 23V1.18182H8.26989C9.78977 1.18182 11.0433 1.4446 12.0305 1.97017C13.0178 2.48864 13.7528 3.18821 14.2358 4.06889C14.7188 4.94247 14.9602 5.91193 14.9602 6.97727C14.9602 7.91477 14.7933 8.68892 14.4595 9.29972C14.1328 9.91051 13.6996 10.3935 13.1598 10.7486C12.6271 11.1037 12.0483 11.3665 11.4233 11.5369V11.75C12.0909 11.7926 12.7621 12.027 13.4368 12.4531C14.1115 12.8793 14.6761 13.4901 15.1307 14.2855C15.5852 15.081 15.8125 16.054 15.8125 17.2045C15.8125 18.2983 15.5639 19.282 15.0668 20.1555C14.5696 21.0291 13.7848 21.7216 12.7124 22.233C11.6399 22.7443 10.2443 23 8.52557 23H0.642046ZM3.28409 20.6562H8.52557C10.2514 20.6562 11.4766 20.3224 12.201 19.6548C12.9325 18.9801 13.2983 18.1634 13.2983 17.2045C13.2983 16.4659 13.1101 15.7841 12.7337 15.1591C12.3572 14.527 11.821 14.0227 11.125 13.6463C10.429 13.2628 9.60511 13.071 8.65341 13.071H3.28409V20.6562ZM3.28409 10.7699H8.18466C8.98011 10.7699 9.69744 10.6136 10.3366 10.3011C10.983 9.98864 11.4943 9.5483 11.8707 8.98011C12.2543 8.41193 12.446 7.74432 12.446 6.97727C12.446 6.01847 12.1122 5.20526 11.4446 4.53764C10.777 3.86293 9.71875 3.52557 8.26989 3.52557H3.28409V10.7699ZM24.6282 23.3835C23.5913 23.3835 22.6502 23.1882 21.805 22.7976C20.9599 22.3999 20.2887 21.8281 19.7915 21.0824C19.2944 20.3295 19.0458 19.4205 19.0458 18.3551C19.0458 17.4176 19.2305 16.6577 19.5998 16.0753C19.9691 15.4858 20.4627 15.0241 21.0806 14.6903C21.6985 14.3565 22.3803 14.108 23.1261 13.9446C23.8789 13.7741 24.6353 13.6392 25.3952 13.5398C26.3896 13.4119 27.1957 13.3161 27.8136 13.2521C28.4386 13.1811 28.8931 13.0639 29.1772 12.9006C29.4684 12.7372 29.614 12.4531 29.614 12.0483V11.9631C29.614 10.9119 29.3263 10.0952 28.7511 9.51278C28.1829 8.9304 27.32 8.6392 26.1623 8.6392C24.962 8.6392 24.021 8.90199 23.3391 9.42756C22.6573 9.95312 22.1779 10.5142 21.9009 11.1108L19.5146 10.2585C19.9407 9.2642 20.5089 8.49006 21.2191 7.93608C21.9364 7.375 22.7177 6.98437 23.5629 6.7642C24.4151 6.53693 25.2532 6.4233 26.0771 6.4233C26.6026 6.4233 27.2063 6.48722 27.8881 6.61506C28.5771 6.73579 29.2411 6.98793 29.8803 7.37145C30.5266 7.75497 31.0629 8.33381 31.489 9.10795C31.9151 9.8821 32.1282 10.919 32.1282 12.2188V23H29.614V20.7841H29.4862C29.3157 21.1392 29.0316 21.5192 28.6339 21.924C28.2362 22.3288 27.707 22.6733 27.0465 22.9574C26.386 23.2415 25.5799 23.3835 24.6282 23.3835ZM25.0117 21.125C26.006 21.125 26.8441 20.9297 27.5259 20.5391C28.2148 20.1484 28.7333 19.6442 29.0813 19.0263C29.4364 18.4084 29.614 17.7585 29.614 17.0767V14.7756C29.5075 14.9034 29.2731 15.0206 28.9109 15.1271C28.5558 15.2266 28.1438 15.3153 27.6751 15.3935C27.2134 15.4645 26.7624 15.5284 26.3221 15.5852C25.8888 15.6349 25.5373 15.6776 25.2674 15.7131C24.614 15.7983 24.0032 15.9368 23.435 16.1286C22.8739 16.3132 22.4194 16.5937 22.0714 16.9702C21.7305 17.3395 21.56 17.8437 21.56 18.483C21.56 19.3565 21.8832 20.017 22.5295 20.4645C23.1829 20.9048 24.0103 21.125 25.0117 21.125ZM39.2314 13.1562V23H36.7172V6.63636H39.1461V9.19318H39.3592C39.7427 8.36222 40.3251 7.6946 41.1064 7.19034C41.8876 6.67898 42.8961 6.4233 44.1319 6.4233C45.2399 6.4233 46.2093 6.65057 47.0403 7.10511C47.8713 7.55256 48.5176 8.23438 48.9792 9.15057C49.4409 10.0597 49.6717 11.2102 49.6717 12.6023V23H47.1575V12.7727C47.1575 11.4872 46.8237 10.4858 46.1561 9.76847C45.4885 9.04403 44.5723 8.68182 43.4075 8.68182C42.6049 8.68182 41.8876 8.85582 41.2555 9.20383C40.6305 9.55185 40.1369 10.0597 39.7747 10.7273C39.4125 11.3949 39.2314 12.2045 39.2314 13.1562ZM56.6097 17.0341L56.5671 13.9233H57.0785L64.2376 6.63636H67.3484L59.7205 14.3494H59.5075L56.6097 17.0341ZM54.266 23V1.18182H56.7802V23H54.266ZM64.6637 23L58.2717 14.9034L60.0614 13.1562L67.8597 23H64.6637ZM76.7713 23.3409C75.1946 23.3409 73.8345 22.9929 72.6911 22.2969C71.5547 21.5938 70.6776 20.6136 70.0597 19.3565C69.4489 18.0923 69.1435 16.6222 69.1435 14.946C69.1435 13.2699 69.4489 11.7926 70.0597 10.5142C70.6776 9.22869 71.5369 8.22727 72.6378 7.50994C73.7457 6.78551 75.0384 6.4233 76.5156 6.4233C77.3679 6.4233 78.2095 6.56534 79.0405 6.84943C79.8714 7.13352 80.6278 7.59517 81.3097 8.23438C81.9915 8.86648 82.5348 9.70455 82.9396 10.7486C83.3445 11.7926 83.5469 13.0781 83.5469 14.6051V15.6705H70.9332V13.4972H80.9901C80.9901 12.5739 80.8054 11.75 80.4361 11.0256C80.0739 10.3011 79.5554 9.7294 78.8807 9.31037C78.2131 8.89133 77.4247 8.68182 76.5156 8.68182C75.5142 8.68182 74.6477 8.9304 73.9162 9.42756C73.1918 9.91761 72.6342 10.5568 72.2436 11.3452C71.853 12.1335 71.6577 12.9787 71.6577 13.8807V15.3295C71.6577 16.5653 71.8707 17.6129 72.2969 18.4723C72.7301 19.3246 73.3303 19.9744 74.0973 20.4219C74.8643 20.8622 75.7557 21.0824 76.7713 21.0824C77.4318 21.0824 78.0284 20.9901 78.5611 20.8054C79.1009 20.6136 79.5661 20.3295 79.9567 19.9531C80.3473 19.5696 80.6491 19.0937 80.8622 18.5256L83.2912 19.2074C83.0355 20.0312 82.6058 20.7557 82.0021 21.3807C81.3984 21.9986 80.6527 22.4815 79.7649 22.8295C78.8771 23.1705 77.8793 23.3409 76.7713 23.3409ZM87.3714 23V6.63636H89.8004V9.10795H89.9709C90.2692 8.2983 90.8089 7.64134 91.5902 7.13707C92.3714 6.63281 93.2521 6.38068 94.2322 6.38068C94.4169 6.38068 94.6477 6.38423 94.9247 6.39133C95.2017 6.39844 95.4112 6.40909 95.5533 6.4233V8.98011C95.468 8.95881 95.2727 8.92685 94.9673 8.88423C94.669 8.83452 94.353 8.80966 94.0192 8.80966C93.2237 8.80966 92.5135 8.97656 91.8885 9.31037C91.2706 9.63707 90.7805 10.0916 90.4183 10.674C90.0632 11.2493 89.8857 11.9062 89.8857 12.6449V23H87.3714ZM98.8745 23V1.18182H101.517V20.6562H111.659V23H98.8745ZM115.409 23V6.63636H117.923V23H115.409ZM116.687 3.90909C116.197 3.90909 115.774 3.74219 115.419 3.40838C115.071 3.07457 114.897 2.6733 114.897 2.20455C114.897 1.7358 115.071 1.33452 115.419 1.00071C115.774 0.666903 116.197 0.5 116.687 0.5C117.177 0.5 117.596 0.666903 117.944 1.00071C118.299 1.33452 118.477 1.7358 118.477 2.20455C118.477 2.6733 118.299 3.07457 117.944 3.40838C117.596 3.74219 117.177 3.90909 116.687 3.90909ZM125.042 13.1562V23H122.528V6.63636H124.957V9.19318H125.17C125.553 8.36222 126.136 7.6946 126.917 7.19034C127.698 6.67898 128.707 6.4233 129.942 6.4233C131.05 6.4233 132.02 6.65057 132.851 7.10511C133.682 7.55256 134.328 8.23438 134.79 9.15057C135.251 10.0597 135.482 11.2102 135.482 12.6023V23H132.968V12.7727C132.968 11.4872 132.634 10.4858 131.967 9.76847C131.299 9.04403 130.383 8.68182 129.218 8.68182C128.415 8.68182 127.698 8.85582 127.066 9.20383C126.441 9.55185 125.947 10.0597 125.585 10.7273C125.223 11.3949 125.042 12.2045 125.042 13.1562ZM142.42 17.0341L142.378 13.9233H142.889L150.048 6.63636H153.159L145.531 14.3494H145.318L142.42 17.0341ZM140.077 23V1.18182H142.591V23H140.077ZM150.474 23L144.082 14.9034L145.872 13.1562L153.67 23H150.474ZM167.986 10.3011L165.727 10.9403C165.585 10.5639 165.376 10.1982 165.099 9.84304C164.829 9.48082 164.46 9.18253 163.991 8.94815C163.522 8.71378 162.922 8.59659 162.19 8.59659C161.189 8.59659 160.354 8.82741 159.687 9.28906C159.026 9.74361 158.696 10.3224 158.696 11.0256C158.696 11.6506 158.923 12.1442 159.378 12.5064C159.832 12.8686 160.543 13.1705 161.509 13.4119L163.938 14.0085C165.401 14.3636 166.491 14.907 167.208 15.6385C167.925 16.3629 168.284 17.2969 168.284 18.4403C168.284 19.3778 168.014 20.2159 167.474 20.9545C166.942 21.6932 166.196 22.2756 165.237 22.7017C164.278 23.1278 163.163 23.3409 161.892 23.3409C160.223 23.3409 158.842 22.9787 157.748 22.2543C156.654 21.5298 155.962 20.4716 155.67 19.0795L158.057 18.483C158.284 19.3636 158.714 20.0241 159.346 20.4645C159.985 20.9048 160.82 21.125 161.849 21.125C163.021 21.125 163.952 20.8764 164.641 20.3793C165.337 19.875 165.685 19.2713 165.685 18.5682C165.685 18 165.486 17.5241 165.088 17.1406C164.69 16.75 164.08 16.4588 163.256 16.267L160.528 15.6278C159.03 15.2727 157.929 14.7223 157.226 13.9766C156.53 13.2237 156.182 12.2827 156.182 11.1534C156.182 10.2301 156.441 9.41335 156.96 8.70312C157.485 7.9929 158.199 7.43537 159.101 7.03054C160.01 6.62571 161.04 6.4233 162.19 6.4233C163.81 6.4233 165.081 6.77841 166.004 7.48864C166.935 8.19886 167.595 9.13636 167.986 10.3011Z" fill="white"/>
</svg>
